<svg width="16" height="16" viewBox="0 0 32 32" fill="none" xmlns="http://www.w3.org/2000/svg">
<path d="M31.5594 27.666L25.3288 21.4354C25.0476 21.1542 24.6663 20.9979 24.2664 20.9979H23.2477C24.9726 18.7919 25.9975 16.0172 25.9975 12.9987C25.9975 5.81818 20.1793 0 12.9987 0C5.81818 0 0 5.81818 0 12.9987C0 20.1793 5.81818 25.9975 12.9987 25.9975C16.0172 25.9975 18.7919 24.9726 20.9979 23.2477V24.2664C20.9979 24.6663 21.1542 25.0476 21.4354 25.3288L27.666 31.5594C28.2535 32.1469 29.2034 32.1469 29.7846 31.5594L31.5532 29.7908C32.1406 29.2034 32.1406 28.2535 31.5594 27.666ZM12.9987 20.9979C8.58041 20.9979 4.99951 17.4233 4.99951 12.9987C4.99951 8.58041 8.57416 4.99951 12.9987 4.99951C17.417 4.99951 20.9979 8.57416 20.9979 12.9987C20.9979 17.417 17.4233 20.9979 12.9987 20.9979Z" fill="white"/>
</svg>
